# xmcd CD database file
#
# Track frame offsets:
#	150
#	18512
#	44687
#	63271
#	87136
#	103207
#	123289
#	144427
#	171043
#	190452
#	211959
#
# Disc length: 3074 seconds
#
# Revision: 0
# Processed by: cddbd v1.5.1PL0 Copyright (c) Steve Scherf et al.
# Submitted via: CDex 1.50beta10
#
DISCID=9a0c000b
DTITLE=Lotus East - A Chillout Experience
DYEAR=2004
DGENRE=New Age
TTITLE0=Hey Diwani, Hey Diwana
TTITLE1=Bhutaneses Dreams
TTITLE2=Nomad
TTITLE3=Harmon Loop Root
TTITLE4=Alone
TTITLE5=Bajaman
TTITLE6=Nadia
TTITLE7=Sunfai
TTITLE8=Jaia Ganesha
TTITLE9=Za
TTITLE10=Rice Field Chant
EXTD=YEAR: 2004
EXTT0=
EXTT1=
EXTT2=
EXTT3=
EXTT4=
EXTT5=
EXTT6=
EXTT7=
EXTT8=
EXTT9=
EXTT10=
PLAYORDER=
